<svg viewBox="0 0 200 200" xmlns="http://www.w3.org/2000/svg">
  <path fill="#FFD6E8" d="M45.9,-79C60.2,-71.3,73,-60.4,80.5,-46.7C87.9,-33,90.1,-16.5,89.4,-0.4C88.7,15.7,85.1,31.3,77.4,44.8C69.8,58.2,58.2,69.4,44.6,77.8C31,86.2,15.5,91.8,0,91.9C-15.6,91.9,-31.2,86.5,-44.5,77.9C-57.8,69.4,-68.8,57.8,-76.1,44.3C-83.4,30.7,-86.9,15.4,-87.5,-0.4C-88.2,-16.1,-85.9,-32.2,-79,-46.3C-72.1,-60.5,-60.5,-72.6,-46.6,-80.5C-32.6,-88.3,-16.3,-91.8,-0.2,-91.4C15.8,-91,31.7,-86.6,45.9,-79Z" transform="translate(100 100)" />
</svg>